<svg xmlns="http://www.w3.org/2000/svg" width="1368.398" height="76.775" viewBox="0 0 1368.398 76.775">
  <path id="Path_475" data-name="Path 475" d="M-245.1,0S-67.1,19.035,102-16,307.947,37.733,420.655,37.733c132.561,0,112.215-63.775,320.1-63.775,120.721,0,382.379,35.756,382.379,35.756" transform="translate(245.169 26.542)" fill="none" stroke="#05bac5" stroke-width="1"/>
  <path id="Path_478" data-name="Path 478" d="M1123.139-5.624S925.2-41.769,748.222.612,567.738-20.136,404.092-21.164,206.7,24.527,78.235-1.248-245.1-10.88-245.1-10.88" transform="translate(245.169 53.175)" fill="none" stroke="#008da9" stroke-width="1"/>
  <path id="Path_477" data-name="Path 477" d="M1123.139,0s-178,19.035-347.1-16S570.09,37.733,457.382,37.733c-132.561,0-112.215-63.775-320.1-63.775C16.557-26.042-245.1,9.714-245.1,9.714" transform="translate(245.169 38.542)" fill="none" stroke="#003f5c" stroke-width="1"/>
</svg>
