<svg xmlns="http://www.w3.org/2000/svg" width="1368.447" height="49" viewBox="0 0 1368.447 49">
  <path id="Path_475" data-name="Path 475" d="M-245.1,0S269.886-5.217,353.967,9.714s76.99,21.674,189.7,21.674C587.17,31.388,677.729,0,734.493,0c89.906,0,388.646,9.714,388.646,9.714" transform="translate(245.271 9)" fill="none" stroke="#05bac5" stroke-width="1"/>
  <path id="Path_476" data-name="Path 476" d="M1123.139,25.7S788.15,1.117,544.672,22.294,511.273-.979,353.96-.979,207.016,22.873,23.356,4.873-245.1,17.469-245.1,17.469" transform="translate(245.271 17.612)" fill="none" stroke="#fff" stroke-width="1" opacity="0.5"/>
  <circle id="Ellipse_25" data-name="Ellipse 25" cx="9" cy="9" r="9" transform="translate(589.271 9)" fill="#05bac5"/>
  <circle id="Ellipse_26" data-name="Ellipse 26" cx="9" cy="9" r="9" transform="translate(780.271 31)" fill="#05bac5"/>
  <circle id="Ellipse_27" data-name="Ellipse 27" cx="9" cy="9" r="9" transform="translate(971.271)" fill="#05bac5"/>
</svg>
