<svg id="Group_192" data-name="Group 192" xmlns="http://www.w3.org/2000/svg" xmlns:xlink="http://www.w3.org/1999/xlink" width="273.75" height="32.88" viewBox="0 0 273.75 32.88">
  <defs>
    <linearGradient id="linear-gradient" x1="0.939" y1="-0.078" x2="-0.083" y2="0.942" gradientUnits="objectBoundingBox">
      <stop offset="0" stop-color="#05bac5"/>
      <stop offset="1" stop-color="#003f5c"/>
    </linearGradient>
    <linearGradient id="linear-gradient-2" x1="0.919" y1="0.777" x2="0.468" y2="0.479" gradientUnits="objectBoundingBox">
      <stop offset="0" stop-color="#b2e2d8"/>
      <stop offset="0.45" stop-color="#05bac5"/>
      <stop offset="0.98" stop-color="#003f5c"/>
    </linearGradient>
    <linearGradient id="linear-gradient-3" x1="0.994" y1="-0.149" x2="-0.172" y2="0.868" gradientUnits="objectBoundingBox">
      <stop offset="0" stop-color="#b2e2d8"/>
      <stop offset="0.17" stop-color="#05bac5"/>
      <stop offset="0.95" stop-color="#003f5c"/>
    </linearGradient>
    <linearGradient id="linear-gradient-4" x1="3.38" y1="0.003" x2="-1.734" y2="0.755" gradientUnits="objectBoundingBox">
      <stop offset="0" stop-color="#b2e2d8"/>
      <stop offset="0.28" stop-color="#05bac5"/>
      <stop offset="1" stop-color="#003f5c"/>
    </linearGradient>
    <linearGradient id="linear-gradient-5" x1="0.796" y1="0.056" x2="-0.27" y2="0.787" gradientUnits="objectBoundingBox">
      <stop offset="0" stop-color="#b2e2d8"/>
      <stop offset="0.36" stop-color="#05bac5"/>
      <stop offset="1" stop-color="#003f5c"/>
    </linearGradient>
    <linearGradient id="linear-gradient-6" x1="0.5" y1="-0.235" x2="0.5" y2="0.95" gradientUnits="objectBoundingBox">
      <stop offset="0" stop-color="#b2e2d8"/>
      <stop offset="0.31" stop-color="#05bac5"/>
      <stop offset="0.96" stop-color="#003f5c"/>
    </linearGradient>
    <linearGradient id="linear-gradient-7" x1="0.986" y1="0.251" x2="0.087" y2="0.479" gradientUnits="objectBoundingBox">
      <stop offset="0.19" stop-color="#008da9" stop-opacity="0"/>
      <stop offset="1" stop-color="#003f5c" stop-opacity="0.502"/>
    </linearGradient>
  </defs>
  <g id="Group_178" data-name="Group 178" transform="translate(0 0)">
    <g id="Group_163" data-name="Group 163">
      <path id="Path_26" data-name="Path 26" d="M133.992,104.03,102.54,136.3v-8.76l22.629-23.513Z" transform="translate(-102.54 -104.03)" fill="url(#linear-gradient)"/>
      <path id="Path_27" data-name="Path 27" d="M116.346,122.135l-13.806,5.408,22.629-23.513Z" transform="translate(-102.54 -104.03)" fill="url(#linear-gradient-2)"/>
      <path id="Path_28" data-name="Path 28" d="M146.45,122.135l17.646-18.1h-8.823Z" transform="translate(-132.644 -104.03)" fill="url(#linear-gradient-3)"/>
      <path id="Path_29" data-name="Path 29" d="M150.17,159.582l8.751,11.9h7.725L154.3,155.35Z" transform="translate(-135.194 -139.214)" fill="#003f5c"/>
      <path id="Path_30" data-name="Path 30" d="M109.288,109.633v19.746L102.54,136.3V104.03Z" transform="translate(-102.54 -104.03)" fill="url(#linear-gradient-4)"/>
      <path id="Path_31" data-name="Path 31" d="M109.288,114.1l-6.748,9.342V104.03Z" transform="translate(-102.54 -104.03)" fill="url(#linear-gradient-5)"/>
      <path id="Path_32" data-name="Path 32" d="M109.288,136.06v15.278L102.54,145.4Z" transform="translate(-102.54 -125.989)" fill="url(#linear-gradient-6)"/>
      <path id="Path_33" data-name="Path 33" d="M123.863,156.51l-.063,8.848,7.122-7.244Z" transform="translate(-117.115 -140.009)" fill="url(#linear-gradient-7)"/>
    </g>
    <g id="Group_177" data-name="Group 177" style="mix-blend-mode: overlay;isolation: isolate">
      <g id="Group_176" data-name="Group 176">
        <g id="Group_164" data-name="Group 164">
          <path id="Path_34" data-name="Path 34" d="M102.54,104.03l.582,30.716-.582,1.556Z" transform="translate(-102.54 -104.03)" fill="#b2e2d8"/>
        </g>
        <g id="Group_165" data-name="Group 165">
          <path id="Path_35" data-name="Path 35" d="M102.54,136.3l.566-30.952-.566-1.321Z" transform="translate(-102.54 -104.03)" fill="#b2e2d8"/>
        </g>
        <g id="Group_166" data-name="Group 166" transform="translate(6.197 5.603)">
          <path id="Path_36" data-name="Path 36" d="M122.8,141.6V121.85l-.55.371Z" transform="translate(-122.25 -121.85)" fill="#b2e2d8"/>
        </g>
        <g id="Group_167" data-name="Group 167">
          <path id="Path_37" data-name="Path 37" d="M102.54,104.03l6.748,5.6-.55.371Z" transform="translate(-102.54 -104.03)" fill="#b2e2d8"/>
        </g>
        <g id="Group_168" data-name="Group 168">
          <path id="Path_38" data-name="Path 38" d="M102.54,104.03l6.748,5.6-6.182-4.283Z" transform="translate(-102.54 -104.03)" fill="#b2e2d8"/>
        </g>
        <g id="Group_169" data-name="Group 169" transform="translate(6.163 5.603)">
          <path id="Path_39" data-name="Path 39" d="M122.725,121.85V141.6l-.585-.135Z" transform="translate(-122.14 -121.85)" fill="#b2e2d8"/>
        </g>
        <g id="Group_170" data-name="Group 170" transform="translate(0 7.216)">
          <path id="Path_40" data-name="Path 40" d="M126.958,126.98l-23.837,23.5-.582,1.556Z" transform="translate(-102.54 -126.98)" fill="#b2e2d8"/>
        </g>
        <g id="Group_171" data-name="Group 171" transform="translate(6.685)">
          <path id="Path_41" data-name="Path 41" d="M148.567,104.03l-1.5.657L123.8,129.379Z" transform="translate(-123.8 -104.03)" fill="#b2e2d8"/>
        </g>
        <g id="Group_172" data-name="Group 172" transform="translate(6.748)">
          <path id="Path_42" data-name="Path 42" d="M140.133,104.612l-.252-.582L124,120.531Z" transform="translate(-124 -104.03)" fill="#b2e2d8"/>
        </g>
        <g id="Group_173" data-name="Group 173" transform="translate(22.629)">
          <path id="Path_43" data-name="Path 43" d="M174.762,104.612l-.252-.582h8.823Z" transform="translate(-174.51 -104.03)" fill="#b2e2d8"/>
        </g>
        <g id="Group_174" data-name="Group 174" transform="translate(22.629)">
          <path id="Path_44" data-name="Path 44" d="M181.836,104.687l-7.326-.657h8.823Z" transform="translate(-174.51 -104.03)" fill="#b2e2d8"/>
        </g>
        <g id="Group_175" data-name="Group 175" transform="translate(6.748)">
          <path id="Path_45" data-name="Path 45" d="M124,121.531l15.882-17.5L124,120.531Z" transform="translate(-124 -104.03)" fill="#b2e2d8"/>
        </g>
      </g>
    </g>
  </g>
  <path id="KLEARNOW" d="M236.937,136.572H214.88V104.991h6.087v26.67h15.97v4.915Zm31.487,0H243.908V104.991h23.557v4.87H250.042v8.059h16.064v4.87H250.042v8.867h18.381Zm36.219,0h-6.625l-2.67-7.383-6.641-18.683-6.754,18.683-2.717,7.383h-6.581l12.854-31.584h6.766l12.363,31.584Zm33.266,0h-7.093l-8.546-12.624h-5.807v12.624h-6.04V104.991H321.4q3.651,0,6.065.23a16.119,16.119,0,0,1,4.144.884,7.4,7.4,0,0,1,3.83,2.959,9.633,9.633,0,0,1,1.251,5.188,8.246,8.246,0,0,1-2.179,6.04,10.717,10.717,0,0,1-6.251,2.83l9.647,13.454ZM316.462,119.4h6.345q4.264,0,5.877-1.179a4.325,4.325,0,0,0,1.685-3.713,4.109,4.109,0,0,0-1.874-3.845q-1.523-.939-5.5-.94h-6.534V119.4Zm54.412,17.168h-3.418q-1.5-2.118-4.144-5.833-8.9-12.536-11.379-16.077t-4.028-5.918q.094,5.462.094,27.827h-2.927V104.991h3.49q16.974,24,19.482,27.783-.141-5.306-.141-27.783h2.974v31.584Zm37.646-15.618q0,7.447-3.783,11.829a12.859,12.859,0,0,1-10.266,4.38,14.616,14.616,0,0,1-8.056-2.173,13.409,13.409,0,0,1-5.081-5.9,20.611,20.611,0,0,1-1.685-8.571q0-7.4,3.933-11.763t10.7-4.358a14.593,14.593,0,0,1,6.311,1.311,11.636,11.636,0,0,1,4.471,3.6,16.748,16.748,0,0,1,2.575,5.242,22.356,22.356,0,0,1,.877,6.4Zm-3.207,0q0-6.575-2.974-10.288a9.877,9.877,0,0,0-8.15-3.713,10.367,10.367,0,0,0-8.3,3.625q-3.08,3.627-3.078,9.807,0,6.532,3.138,10.354a10.4,10.4,0,0,0,8.477,3.823,9.684,9.684,0,0,0,7.949-3.638Q405.311,127.289,405.313,120.955Zm38.98,15.618h-3.022q-4.8-16.031-6.006-20.148t-2-7.414q-.8,3.452-2.05,7.82t-5.864,19.746h-3.069l-9.342-31.584h3.16q7.046,24.483,7.914,28.044.868-3.518,7.82-28.044h2.833q6.579,22.214,8.1,28,1.406-6.226,7.471-28h3.069l-9.015,31.584Z" transform="translate(-179.557 -104.284)" fill="#003f5c"/>
</svg>
