<svg id="Group_9894" data-name="Group 9894" xmlns="http://www.w3.org/2000/svg" xmlns:xlink="http://www.w3.org/1999/xlink" width="125.323" height="101.413" viewBox="0 0 125.323 101.413">
  <defs>
    <clipPath id="clip-path">
      <rect id="Rectangle_123" data-name="Rectangle 123" width="125.323" height="101.413" transform="translate(0 0)" fill="#003f5c"/>
    </clipPath>
  </defs>
  <g id="Group_9893" data-name="Group 9893" clip-path="url(#clip-path)">
    <path id="Path_163" data-name="Path 163" d="M117.305,101.413H8.023A8.028,8.028,0,0,1,0,93.394V8.019A8.028,8.028,0,0,1,8.023,0H117.305a8.027,8.027,0,0,1,8.018,8.019V93.394a8.027,8.027,0,0,1-8.018,8.019M8.023,3.714a4.31,4.31,0,0,0-4.3,4.305V93.394a4.31,4.31,0,0,0,4.3,4.305H117.305a4.31,4.31,0,0,0,4.305-4.305V8.019a4.31,4.31,0,0,0-4.305-4.305Z" fill="#003f5c"/>
    <path id="Path_164" data-name="Path 164" d="M123.463,22.607H1.857A1.857,1.857,0,0,1,0,20.75V8.021A8.027,8.027,0,0,1,8.019,0H117.3a8.027,8.027,0,0,1,8.019,8.018V20.75a1.857,1.857,0,0,1-1.857,1.857M3.714,18.893H121.606V8.021a4.309,4.309,0,0,0-4.305-4.3H8.019a4.309,4.309,0,0,0-4.305,4.3Z" fill="#003f5c"/>
    <path id="Path_165" data-name="Path 165" d="M11.281,13.164a1.862,1.862,0,0,1-1.313-.544,1.88,1.88,0,0,1-.544-1.312,1.858,1.858,0,0,1,.544-1.313,1.917,1.917,0,0,1,2.625,0,1.859,1.859,0,0,1,.545,1.313,1.859,1.859,0,0,1-1.857,1.856" fill="#003f5c"/>
    <path id="Path_166" data-name="Path 166" d="M26.285,13.164a1.857,1.857,0,0,1-1.857-1.856,1.953,1.953,0,0,1,.036-.372,2.152,2.152,0,0,1,.112-.347,1.1,1.1,0,0,1,.173-.309,1.3,1.3,0,0,1,.223-.285,1.875,1.875,0,0,1,1.683-.507,1.722,1.722,0,0,1,.347.1,2.391,2.391,0,0,1,.311.173,1.793,1.793,0,0,1,.284.235,1.918,1.918,0,0,1,.235.285,2.707,2.707,0,0,1,.173.309,1.907,1.907,0,0,1,.1.347A1.861,1.861,0,0,1,27.6,12.62a1.263,1.263,0,0,1-.284.222,1.1,1.1,0,0,1-.311.174,1.839,1.839,0,0,1-.347.111,1.865,1.865,0,0,1-.37.037" fill="#003f5c"/>
    <path id="Path_167" data-name="Path 167" d="M18.783,13.164a1.661,1.661,0,0,1-.359-.037,2.385,2.385,0,0,1-.669-.272,2.7,2.7,0,0,1-.285-.235,1.88,1.88,0,0,1-.544-1.312,1.858,1.858,0,0,1,.544-1.313,2.578,2.578,0,0,1,.285-.235,2.546,2.546,0,0,1,.323-.173,1.516,1.516,0,0,1,.346-.1,1.856,1.856,0,0,1,2.216,1.82,1.881,1.881,0,0,1-.545,1.312,2.6,2.6,0,0,1-.285.235,2.363,2.363,0,0,1-.668.272,1.661,1.661,0,0,1-.359.037" fill="#003f5c"/>
    <path id="Path_168" data-name="Path 168" d="M42.744,77.213a12.022,12.022,0,1,1,7.535-2.658,12.011,12.011,0,0,1-7.535,2.658m-.02-20.331a8.309,8.309,0,1,0,6.481,3.093,8.269,8.269,0,0,0-6.481-3.093" fill="#003f5c"/>
    <path id="Path_169" data-name="Path 169" d="M41.919,90.365a4.759,4.759,0,0,1-.5-.027l-2.736-.294a4.656,4.656,0,0,1-4.132-5.128l.166-1.547a19.868,19.868,0,0,1-2.934-1.6l-1.213.977a4.657,4.657,0,0,1-6.547-.7L22.292,79.9A4.654,4.654,0,0,1,23,73.35l1.213-.977a19.725,19.725,0,0,1-.943-3.208L21.717,69a4.655,4.655,0,0,1-4.131-5.128l.294-2.735A4.656,4.656,0,0,1,23.006,57l1.549.167a19.676,19.676,0,0,1,1.6-2.934l-.978-1.214a4.662,4.662,0,0,1,.7-6.547l2.143-1.726a4.656,4.656,0,0,1,6.547.7l.977,1.213a19.784,19.784,0,0,1,3.208-.943l.167-1.548a4.666,4.666,0,0,1,5.127-4.132l2.735.294a4.661,4.661,0,0,1,4.132,5.127l-.166,1.548a19.776,19.776,0,0,1,2.934,1.6l1.212-.978h0a4.662,4.662,0,0,1,6.547.7l1.726,2.142a4.656,4.656,0,0,1-.7,6.547l-1.213.978a19.7,19.7,0,0,1,.943,3.207l1.549.167A4.662,4.662,0,0,1,67.88,66.51l-.295,2.735a4.655,4.655,0,0,1-5.126,4.132l-1.549-.166a19.812,19.812,0,0,1-1.6,2.934l.977,1.213a4.656,4.656,0,0,1-.7,6.547L57.44,85.631a4.655,4.655,0,0,1-6.548-.7l-.978-1.212a19.843,19.843,0,0,1-3.207.943l-.167,1.548a4.657,4.657,0,0,1-4.621,4.159m-3.374-7.9-.306,2.848a.943.943,0,0,0,.836,1.038l2.735.294a.932.932,0,0,0,.692-.2.942.942,0,0,0,.346-.633l.317-2.951a1.853,1.853,0,0,1,1.61-1.644,16.015,16.015,0,0,0,4.9-1.44,1.858,1.858,0,0,1,2.246.512L53.784,82.6a.942.942,0,0,0,1.325.143l2.141-1.726a.942.942,0,0,0,.143-1.325L55.53,77.376a1.856,1.856,0,0,1-.022-2.3,16.021,16.021,0,0,0,2.448-4.482A1.862,1.862,0,0,1,59.9,69.367l2.951.318a.942.942,0,0,0,1.038-.837l.3-2.735a.944.944,0,0,0-.837-1.037L60.4,64.759a1.856,1.856,0,0,1-1.644-1.611,16.012,16.012,0,0,0-1.44-4.9A1.858,1.858,0,0,1,57.827,56l2.312-1.863a.942.942,0,0,0,.142-1.324l-1.725-2.143a.946.946,0,0,0-1.327-.142l-2.31,1.863a1.858,1.858,0,0,1-2.3.023,16.01,16.01,0,0,0-4.48-2.448,1.857,1.857,0,0,1-1.227-1.949l.318-2.951a.946.946,0,0,0-.837-1.038l-2.735-.294a.938.938,0,0,0-1.038.837L42.3,47.524a1.857,1.857,0,0,1-1.613,1.643,16.059,16.059,0,0,0-4.9,1.44,1.858,1.858,0,0,1-2.246-.511l-1.863-2.312a.943.943,0,0,0-1.325-.142l-2.141,1.726a.942.942,0,0,0-.143,1.325l1.863,2.312a1.856,1.856,0,0,1,.022,2.3,16.033,16.033,0,0,0-2.447,4.48,1.854,1.854,0,0,1-1.95,1.227L22.609,60.7a.924.924,0,0,0-.691.2.938.938,0,0,0-.346.633l-.294,2.735a.943.943,0,0,0,.836,1.038l2.951.317a1.856,1.856,0,0,1,1.644,1.613,16.028,16.028,0,0,0,1.44,4.9,1.861,1.861,0,0,1-.511,2.246l-2.312,1.863a.943.943,0,0,0-.142,1.325l1.726,2.142a.94.94,0,0,0,1.324.142l2.313-1.863a1.854,1.854,0,0,1,2.3-.021,16.048,16.048,0,0,0,4.473,2.444,2.247,2.247,0,0,1,.221.093,1.858,1.858,0,0,1,1,1.961" fill="#003f5c"/>
    <path id="Path_170" data-name="Path 170" d="M86.645,62.1a10.053,10.053,0,1,1,2.92-.437,9.965,9.965,0,0,1-2.92.437m.021-16.327a6.336,6.336,0,0,0-1.837.274,6.267,6.267,0,1,0,1.837-.274" fill="#003f5c"/>
    <path id="Path_171" data-name="Path 171" d="M90.561,73.184a4.229,4.229,0,0,1-4.033-3l-.32-1.056a16.876,16.876,0,0,1-2.436-.241l-.521.974A4.227,4.227,0,0,1,77.539,71.6l-2.047-1.1a4.221,4.221,0,0,1-1.733-5.711l.522-.975a16.749,16.749,0,0,1-1.554-1.892l-1.057.321a4.226,4.226,0,0,1-5.263-2.814l-.674-2.222a4.219,4.219,0,0,1,2.813-5.263l1.057-.321a17.034,17.034,0,0,1,.241-2.436l-.975-.521a4.22,4.22,0,0,1-1.732-5.711l1.1-2.048a4.22,4.22,0,0,1,5.711-1.732l.974.521a16.978,16.978,0,0,1,1.893-1.554l-.321-1.056A4.226,4.226,0,0,1,79.3,31.823l2.222-.674a4.22,4.22,0,0,1,5.263,2.814l.32,1.056a16.89,16.89,0,0,1,2.437.241l.521-.975a4.225,4.225,0,0,1,5.711-1.732l2.047,1.095a4.219,4.219,0,0,1,1.733,5.711l-.521.975a16.987,16.987,0,0,1,1.555,1.893l1.054-.321a4.227,4.227,0,0,1,5.265,2.813l.674,2.222a4.224,4.224,0,0,1-2.815,5.263l-1.056.321a16.888,16.888,0,0,1-.24,2.436l.974.521a4.217,4.217,0,0,1,1.732,5.711l-1.1,2.048a4.218,4.218,0,0,1-5.71,1.732l-.975-.521a16.837,16.837,0,0,1-1.892,1.554l.321,1.057a4.227,4.227,0,0,1-2.814,5.263L91.792,73a4.232,4.232,0,0,1-1.231.184m-2.98-7.791a1.858,1.858,0,0,1,1.777,1.319l.725,2.4a.506.506,0,0,0,.631.336l2.222-.674a.508.508,0,0,0,.337-.632l-.7-2.3a1.856,1.856,0,0,1,.811-2.239,13.255,13.255,0,0,0,3.26-2.677,1.858,1.858,0,0,1,2.267-.408l2.21,1.182a.506.506,0,0,0,.685-.207l1.1-2.049a.493.493,0,0,0,.038-.385.5.5,0,0,0-.245-.3l-2.211-1.181a1.857,1.857,0,0,1-.92-2.111,13.253,13.253,0,0,0,.414-4.2,1.855,1.855,0,0,1,1.316-1.891l2.4-.725a.507.507,0,0,0,.336-.632l-.675-2.221a.506.506,0,0,0-.63-.338l-2.4.727a1.855,1.855,0,0,1-2.144-.842,13.219,13.219,0,0,0-2.675-3.259,1.856,1.856,0,0,1-.408-2.267l1.182-2.21a.5.5,0,0,0-.208-.684l-2.047-1.1a.508.508,0,0,0-.686.208l-1.182,2.21a1.855,1.855,0,0,1-2.111.92,13.208,13.208,0,0,0-4.2-.414,1.852,1.852,0,0,1-1.891-1.315l-.728-2.4a.491.491,0,0,0-.245-.3A.5.5,0,0,0,82.6,34.7l-2.221.674a.507.507,0,0,0-.338.632l.727,2.4a1.856,1.856,0,0,1-.842,2.143,13.291,13.291,0,0,0-3.259,2.676,1.856,1.856,0,0,1-2.267.407l-2.21-1.181a.5.5,0,0,0-.684.208l-1.1,2.048a.5.5,0,0,0,.208.684l2.21,1.182a1.858,1.858,0,0,1,.921,2.111,13.241,13.241,0,0,0-.415,4.2,1.858,1.858,0,0,1-1.315,1.892l-2.4.726a.5.5,0,0,0-.336.631l.674,2.222a.507.507,0,0,0,.631.338l2.4-.728a1.858,1.858,0,0,1,2.143.843,13.272,13.272,0,0,0,2.676,3.259,1.856,1.856,0,0,1,.407,2.266l-1.181,2.211a.507.507,0,0,0,.207.685L79.29,68.32a.505.505,0,0,0,.685-.208l1.182-2.21a1.858,1.858,0,0,1,2.111-.92,13.2,13.2,0,0,0,4.2.414c.038,0,.077,0,.115,0" fill="#003f5c"/>
  </g>
</svg>
