<svg id="Group_9900" data-name="Group 9900" xmlns="http://www.w3.org/2000/svg" xmlns:xlink="http://www.w3.org/1999/xlink" width="175.932" height="113.804" viewBox="0 0 175.932 113.804">
  <defs>
    <clipPath id="clip-path">
      <rect id="Rectangle_126" data-name="Rectangle 126" width="175.932" height="113.804" fill="#fff"/>
    </clipPath>
  </defs>
  <g id="Group_9899" data-name="Group 9899" clip-path="url(#clip-path)">
    <path id="Path_187" data-name="Path 187" d="M163.416,97.562H61.567a1.856,1.856,0,1,1,0-3.713H163.416a8.813,8.813,0,0,0,8.8-8.8V12.516a8.813,8.813,0,0,0-8.8-8.8H44.157a8.813,8.813,0,0,0-8.8,8.8V48.533a1.857,1.857,0,0,1-3.714,0V12.516A12.531,12.531,0,0,1,44.157,0H163.416a12.531,12.531,0,0,1,12.516,12.517v72.53a12.531,12.531,0,0,1-12.516,12.516" fill="#fff"/>
    <path id="Path_188" data-name="Path 188" d="M111.39,113.8H96.184a1.856,1.856,0,0,1-1.857-1.857V95.706a1.856,1.856,0,0,1,1.857-1.857H111.39a1.856,1.856,0,0,1,1.857,1.857v16.241a1.856,1.856,0,0,1-1.857,1.857M98.04,110.09h11.493V97.563H98.04Z" fill="#fff"/>
    <path id="Path_189" data-name="Path 189" d="M125.846,113.8H81.728a1.857,1.857,0,0,1,0-3.714h44.118a1.857,1.857,0,0,1,0,3.714" fill="#fff"/>
    <path id="Path_190" data-name="Path 190" d="M115.816,52.117A1.857,1.857,0,0,1,114.451,49L130.826,31.24a1.857,1.857,0,0,1,2.731,2.517L117.182,51.518a1.849,1.849,0,0,1-1.366.6" fill="#fff"/>
    <path id="Path_191" data-name="Path 191" d="M107.692,53.487a1.853,1.853,0,0,1-.928-.249L95.273,46.6a1.857,1.857,0,0,1,1.858-3.216l11.491,6.639a1.857,1.857,0,0,1-.93,3.465" fill="#fff"/>
    <path id="Path_192" data-name="Path 192" d="M68.236,66.326a1.857,1.857,0,0,1-1.278-3.2L86.443,44.657A1.857,1.857,0,0,1,89,47.354L69.513,65.817a1.854,1.854,0,0,1-1.277.509" fill="#fff"/>
    <path id="Path_193" data-name="Path 193" d="M91.6,49.178a6.825,6.825,0,1,1,6.824-6.824A6.832,6.832,0,0,1,91.6,49.178m0-9.935a3.111,3.111,0,1,0,3.11,3.111,3.114,3.114,0,0,0-3.11-3.111" fill="#fff"/>
    <path id="Path_194" data-name="Path 194" d="M112.165,61.085a6.824,6.824,0,1,1,6.825-6.824,6.831,6.831,0,0,1-6.825,6.824m0-9.935a3.11,3.11,0,1,0,3.11,3.111,3.114,3.114,0,0,0-3.11-3.111" fill="#fff"/>
    <path id="Path_195" data-name="Path 195" d="M135.816,35.391a6.824,6.824,0,1,1,6.825-6.824,6.832,6.832,0,0,1-6.825,6.824m0-9.935a3.111,3.111,0,1,0,3.11,3.111,3.114,3.114,0,0,0-3.11-3.111" fill="#fff"/>
    <path id="Path_196" data-name="Path 196" d="M145.388,77.315H67.447a1.857,1.857,0,0,1-1.857-1.857V21.609a1.857,1.857,0,0,1,3.714,0V73.6h76.084a1.857,1.857,0,0,1,0,3.714" fill="#fff"/>
    <path id="Path_197" data-name="Path 197" d="M72.708,28.726a1.851,1.851,0,0,1-1.313-.544l-3.948-3.947L63.5,28.182a1.857,1.857,0,0,1-2.627-2.626L66.134,20.3a1.857,1.857,0,0,1,2.626,0l5.261,5.261a1.857,1.857,0,0,1-1.313,3.17" fill="#fff"/>
    <path id="Path_198" data-name="Path 198" d="M140.127,82.576a1.857,1.857,0,0,1-1.313-3.17l3.948-3.948-3.948-3.947a1.857,1.857,0,1,1,2.626-2.627l5.261,5.261a1.857,1.857,0,0,1,0,2.626l-5.261,5.261a1.853,1.853,0,0,1-1.313.544" fill="#fff"/>
    <path id="Path_199" data-name="Path 199" d="M61.567,113.8a1.856,1.856,0,0,1-1.857-1.857v-18.6A11.376,11.376,0,0,0,48.346,81.982H15.08A11.377,11.377,0,0,0,3.714,93.346v18.6a1.857,1.857,0,1,1-3.714,0v-18.6A15.1,15.1,0,0,1,15.077,78.268H48.344a15.1,15.1,0,0,1,15.08,15.078v18.6a1.856,1.856,0,0,1-1.857,1.857" fill="#fff"/>
    <path id="Path_200" data-name="Path 200" d="M31.713,72.975A13.025,13.025,0,1,1,44.739,59.95,13.04,13.04,0,0,1,31.713,72.975m0-22.336a9.311,9.311,0,1,0,9.312,9.311,9.322,9.322,0,0,0-9.312-9.311" fill="#fff"/>
    <path id="Path_201" data-name="Path 201" d="M14.222,113.8a1.856,1.856,0,0,1-1.857-1.857V95.383a1.856,1.856,0,1,1,3.713,0v16.564a1.856,1.856,0,0,1-1.856,1.857" fill="#fff"/>
    <path id="Path_202" data-name="Path 202" d="M49.2,113.8a1.856,1.856,0,0,1-1.857-1.857V95.383a1.857,1.857,0,1,1,3.714,0v16.564A1.856,1.856,0,0,1,49.2,113.8" fill="#fff"/>
  </g>
</svg>
